<?xml version="1.0" encoding="UTF-8"?>
<svg width="23px" height="23px" viewBox="0 0 23 23" version="1.1" xmlns="http://www.w3.org/2000/svg" xmlns:xlink="http://www.w3.org/1999/xlink">
    <title>British Made</title>
    <g id="Page-1" stroke="none" stroke-width="1" fill="none" fill-rule="evenodd">
        <g id="British-Made" transform="translate(0.500000, 0.500000)" stroke="#717171">
            <path d="M11,22 C4.92486775,22 0,17.0751322 0,11 C0,4.92486775 4.92486775,0 11,0 C17.0751322,0 22,4.92486775 22,11 C22,13.9173814 20.8410748,16.7152744 18.7781746,18.7781746 C16.7152744,20.8410748 13.9173814,22 11,22 Z" id="Path"></path>
            <line x1="7.88" y1="8.81" x2="2.82" y2="3.75" id="Path" stroke-width="1.5"></line>
            <polyline id="Path" points="8.84 0.21 8.84 8.84 0.21 8.84"></polyline>
            <line x1="13.16" y1="7.88" x2="18.21" y2="2.82" id="Path" stroke-width="1.5"></line>
            <polyline id="Path" points="21.76 8.84 13.13 8.84 13.13 0.21"></polyline>
            <line x1="14.12" y1="13.19" x2="19.18" y2="18.24" id="Path" stroke-width="1.5"></line>
            <polyline id="Path" points="13.16 21.79 13.16 13.16 21.79 13.16"></polyline>
            <line x1="8.84" y1="14.12" x2="3.79" y2="19.17" id="Path" stroke-width="1.5"></line>
            <polyline id="Path" points="0.24 13.16 8.87 13.16 8.87 21.79"></polyline>
        </g>
    </g>
</svg>