<svg xmlns="http://www.w3.org/2000/svg" width="25px" height="22px" viewBox="0 0 25 22" version="1.1">
    <title>Made By Hand</title>
    <g id="Page-1" stroke="none" stroke-width="1" fill="none" fill-rule="evenodd" stroke-linecap="round" stroke-linejoin="round">
        <g id="Made-By-Hand" transform="translate(0.500000, 1.480000)" stroke="#717171">
            <path d="M7.83,10.01 L7.44,9.17 C6.55515428,7.26109043 6.06534389,5.1930021 6,3.09 L6,3 C6,1.34314575 4.65685425,0 3,0 M3,20 C4.65685425,20 6,18.6568542 6,17 C6.0488767,14.8687804 6.56070637,12.773691 7.5,10.86 L7.88,10.01 M7.88,10.01 L17,13.52 L7.86,10.02 L23,4.11 C19.6859583,2.43537417 15.7287885,2.66433288 12.63,4.71 C10.872419,5.87004256 9.39918228,7.41164292 8.32,9.22 L7.83,10.01" id="Shape"/>
            <path d="M7.83,10.01 L8.33,10.81 C8.92429638,11.7878495 9.62525112,12.696743 10.42,13.52" id="Path"/>
            <circle id="Oval" cx="3" cy="3.02" r="3"/>
            <circle id="Oval" cx="3" cy="17.02" r="3"/>
            <line x1="10.01" y1="15.52" x2="10.52" y2="15.52" id="Path"/>
            <line x1="12.49" y1="15.52" x2="13.49" y2="15.52" id="Path"/>
            <line x1="15.99" y1="15.52" x2="17.02" y2="15.52" id="Path"/>
            <line x1="19.49" y1="15.52" x2="20.49" y2="15.52" id="Path"/>
            <line x1="22.49" y1="15.52" x2="23.01" y2="15.52" id="Path"/>
        </g>
    </g>
</svg>
